# AST/ASF file generated using VICON BodyLanguage
# -----------------------------------------------
:version 1.10
:name VICON
:units
  mass 1.0
  length 0.45
  angle deg
:documentation
   .ast/.asf automatically generated from VICON data using
   VICON BodyBuilder and BodyLanguage model FoxedUp or BRILLIANT.MOD
:root
   order TX TY TZ RX RY RZ
   axis XYZ
   position 0 0 0  
   orientation 0 0 0 
:bonedata
  begin
     id 1 
     name lhipjoint
     direction 0.78388 -0.462562 0.414208 
     length 3.01181 
     axis 0 0 0  XYZ
  end
  begin
     id 2 
     name lfemur
     direction 0.34202 -0.939693 0  
     length 6.04673  
     axis 0 0 20  XYZ
    dof rx ry rz
    limits (-160.0 20.0)
           (-70.0 70.0)
           (-60.0 70.0)
  end
  begin
     id 3 
     name ltibia
     direction 0.34202 -0.939693 0   
     length 7.211   
     axis 0 0 20   XYZ
    dof rx
    limits (-10.0 170.0)
  end
  begin
     id 4 
     name lfoot
     direction 0.121887 -0.334882 0.934344   
     length 2.13567   
     axis -90 7.62852e-016 20   XYZ
    dof rx rz
    limits (-45.0 90.0)
           (-70.0 20.0)
  end
  begin
     id 5 
     name ltoes
     direction 1.53555e-011 -4.2179e-011 1   
     length 1.05957   
     axis -90 7.62852e-016 20   XYZ
    dof rx
    limits (-90.0 20.0)
  end
  begin
     id 6 
     name rhipjoint
     direction -0.769387 -0.475875 0.426129   
     length 2.92756  
     axis 0 0 0  XYZ 
  end
  begin
     id 7 
     name rfemur
     direction -0.34202 -0.939693 0   
     length 6.35468   
     axis 0 0 -20   XYZ
    dof rx ry rz
    limits (-160.0 20.0)
           (-70.0 70.0)
           (-70.0 60.0)
  end
  begin
     id 8 
     name rtibia
     direction -0.34202 -0.939693 0   
     length 7.37886   
     axis 0 0 -20   XYZ
    dof rx
    limits (-10.0 170.0)
 end
 begin
     id 9 
     name rfoot
     direction -0.101763 -0.279592 0.954711   
     length 2.21478  
     axis -90 -7.62852e-016 -20   XYZ
    dof rx rz
    limits (-45.0 90.0)
           (-20.0 70.0)
  end
  begin
     id 10 
     name rtoes
     direction -1.53494e-011 -4.21851e-011 1   
     length 1.10506   
     axis -90 -7.62852e-016 -20   XYZ
    dof rx
    limits (-90.0 20.0)
  end
  begin
     id 11 
     name lowerback
     direction 0.00747405 0.999267 0.0375481   
     length 2.13259   
     axis 0 0 0   XYZ
    dof rx ry rz
    limits (-20.0 45.0)
           (-30.0 30.0)
           (-30.0 30.0)
  end
  begin
     id 12 
     name upperback
     direction 0.00661626 0.996177 0.0871029   
     length 2.10528   
     axis 0 0 0   XYZ
    dof rx ry rz
    limits (-20.0 45.0)
           (-30.0 30.0)
           (-30.0 30.0)
  end
  begin
     id 13 
     name thorax
     direction 0.00320659 0.997679 0.0680167   
     length 2.11338   
     axis 0 0 0   XYZ
    dof rx ry rz
    limits (-20.0 45.0)
           (-30.0 30.0)
           (-30.0 30.0)
  end
  begin
     id 14 
     name lowerneck
     direction 0.0374841 0.973033 0.227602   
     length 1.42765   
     axis 0 0 0   XYZ
    dof rx ry rz
    limits (-20.0 45.0)
           (-30.0 30.0)
           (-30.0 30.0)
  end
  begin
     id 15 
     name upperneck
     direction 0.00481585 0.989155 -0.146795   
     length 1.47593   
     axis 0 0 0   XYZ
    dof rx ry rz
    limits (-20.0 45.0)
           (-30.0 30.0)
           (-30.0 30.0)
  end
  begin
     id 16
     name head
     direction -0.00292522 0.997206 -0.0746423  
     length 1.48116  
     axis 0 0 0   XYZ
    dof rx ry rz
    limits (-20.0 45.0)
           (-30.0 30.0)
           (-30.0 30.0)
  end
  begin
     id 17 
     name lclavicle
     direction 0.951444 0.305606 0.0368784  
     length 3.01855  
     axis 0 0 0   XYZ
    dof ry rz
    limits (-20.0 10.0)
           (0.0 20.0)
  end
  begin
     id 18 
     name lhumerus
     direction 1 -4.48977e-011 2.61664e-027   
     length 5.52731   
     axis 180 -30 -90   XYZ
    dof rx ry rz
    limits (-60.0 90.0)
           (-90.0 90.0)
           (-90.0 90.0)
  end
  begin
     id 19
     name lradius
     direction 1 -4.48944e-011 8.22157e-027   
     length 3.11059   
     axis 180 -30 -90   XYZ
    dof rx
    limits (-10.0 170.0)
  end
  begin
     id 20
     name lwrist
     direction 1 -4.48976e-011 1.5779e-026   
     length 1.5553   
     axis -1.15221e-014 90 90   XYZ
    dof ry
    limits (-180.0 0.0)
 end
  begin
     id 21 
     name lhand
     direction 1 -4.49025e-011 3.1558e-026   
     length 0.419626   
     axis -2.01367e-014 90 90   XYZ
    dof rx rz
    limits (-90.0 90.0)
           (-45.0 45.0)
  end
  begin
     id 22 
     name lfingers
     direction 1 -4.4904e-011 6.31161e-026   
     length 0.338313   
     axis -4.02734e-014 90 90   XYZ
    dof rx
    limits (0.0 90.0)
  end
  begin
     id 23
     name lthumb
     direction 0.707107 -6.35004e-011 0.707107   
     length 0.485752   
     axis -90 45 2.85299e-015   XYZ
    dof rx rz
    limits (-45.0 45.0)
           (-45.0 45.0)
  end
  begin
     id 24 
     name rclavicle
     direction -0.968876 0.223791 0.105816   
     length 3.04177  
     axis 0 0 0   XYZ 
    dof ry rz
    limits (-10.0 20.0)
           (-20.0 0.0)
  end
  begin
     id 25 
     name rhumerus
     direction -1 -4.48962e-011 -1.01384e-027  
     length 5.25396   
     axis 180 30 90   XYZ
    dof rx ry rz
    limits (-90.0 60.0)
           (-90.0 90.0)
           (-90.0 90.0)
  end
  begin
     id 26 
     name rradius
     direction -1 -4.48955e-011 8.88542e-027   
     length 3.10567   
     axis 180 30 90   XYZ
    dof rx
    limits (-10.0 170.0)
  end
  begin
     id 27 
     name rwrist
     direction -1 -4.48994e-011 1.5779e-026   
     length 1.55283   
     axis -1.15221e-014 -90 -90   XYZ
    dof ry
    limits (-180.0 0.0)
  end
  begin
     id 28
     name rhand
     direction -1 -4.48891e-011 3.1558e-026   
     length 0.498676   
     axis -2.01367e-014 -90 -90   XYZ
    dof rx rz
    limits (-90.0 90.0)
           (-45.0 45.0)
  end
  begin
     id 29
     name rfingers
     direction -1 -4.48972e-011 6.31161e-026   
     length 0.402045   
     axis -4.02734e-014 -90 -90   XYZ
    dof rx
    limits (0.0 90.0)
  end
  begin
     id 30
     name rthumb
     direction -0.707107 -6.34849e-011 0.707107   
     length 0.577259   
     axis -90 -45 -2.85299e-015   XYZ
    dof rx rz
    limits (-45.0 45.0)
           (-45.0 45.0)
  end
:hierarchy
  begin
    root lhipjoint rhipjoint lowerback
    lhipjoint lfemur
    lfemur ltibia
    ltibia lfoot
    lfoot ltoes
    rhipjoint rfemur
    rfemur rtibia
    rtibia rfoot
    rfoot rtoes
    lowerback upperback
    upperback thorax
    thorax lowerneck lclavicle rclavicle
    lowerneck upperneck
    upperneck head
    lclavicle lhumerus
    lhumerus lradius
    lradius lwrist
    lwrist lhand lthumb
    lhand lfingers
    rclavicle rhumerus
    rhumerus rradius
    rradius rwrist
    rwrist rhand rthumb
    rhand rfingers
  end

#!OML:ASF H:\Pregnant\Project 1\Capture day 1\Session 1\femalepreg.ASF
:FULLY-SPECIFIED
:DEGREES
341
root 5.52311 15.8878 9.827 119.516 -80.726 -98.162
lowerback -11.0931 -2.44434 -11.3984
upperback -6.90544 -2.61122 -1.68769
thorax -0.735464 -1.17399 4.33945
lowerneck -21.9281 5.82006 6.02376
upperneck 19.6762 4.01182 7.5019
head 9.90504 3.15563 2.25629
rclavicle -3.02153e-014 3.18055e-015
rhumerus -48.8196 -3.70476 -79.0725
rradius 25.6114
rwrist -1.95033
rhand -8.32004 -17.0041
rfingers 7.12502
rthumb 17.6009 -46.2274
lclavicle -3.02153e-014 3.18055e-015
lhumerus -25.7248 -23.2852 85.6806
lradius 28.4822
lwrist 39.3846
lhand -26.4389 -4.04224
lfingers 7.12502
lthumb 0.121798 25.9375
rfemur -41.9941 13.1876 27.1982
rtibia 45.0479
rfoot -15.6384 -15.6406
rtoes -1.13127
lfemur -38.9464 -10.3655 -8.82985
ltibia 35.9901
lfoot -16.0939 3.74222
ltoes -15.4744
342
root 5.52737 15.8984 9.80447 120.243 -80.6107 -98.9435
lowerback -10.9547 -2.33156 -11.5201
upperback -6.85489 -2.46552 -1.83097
thorax -0.783525 -1.09902 4.27659
lowerneck -21.9694 5.71729 5.83717
upperneck 19.5417 3.85214 7.83515
head 9.85665 3.10242 2.37614
rclavicle 1.44119e-014 1.90833e-014
rhumerus -48.7422 -3.11516 -79.6668
rradius 26.181
rwrist -2.38775
rhand -8.50391 -16.9742
rfingers 7.12502
rthumb 17.4239 -46.2133
lclavicle 1.44119e-014 1.90833e-014
lhumerus -25.6015 -23.2434 85.578
lradius 27.9884
lwrist 39.2709
lhand -26.3599 -3.89746
lfingers 7.12502
lthumb 0.198122 26.0822
rfemur -42.2784 13.2926 26.855
rtibia 45.474
rfoot -15.3604 -15.7856
rtoes -1.06446
lfemur -38.7418 -10.2592 -8.66836
ltibia 35.8032
lfoot -16.0257 3.82971
ltoes -15.6246
343
root 5.53114 15.9091 9.78182 121.015 -80.5063 -99.7716
lowerback -10.8313 -2.20712 -11.6319
upperback -6.79954 -2.30304 -1.97823
thorax -0.821114 -1.01679 4.20471
lowerneck -22.0201 5.60138 5.63253
upperneck 19.4091 3.68032 8.16838
head 9.81138 3.04233 2.49749
rclavicle -8.54774e-015 5.40694e-014
rhumerus -48.6716 -2.54666 -80.2391
rradius 26.8146
rwrist -2.92106
rhand -8.74576 -16.9719
rfingers 7.12502
rthumb 17.1912 -46.2315
lclavicle -8.54774e-015 5.40694e-014
lhumerus -25.4726 -23.223 85.478
lradius 27.4949
lwrist 39.1573
lhand -26.2186 -3.7316
lfingers 7.12502
lthumb 0.334662 26.2479
rfemur -42.5643 13.398 26.4731
rtibia 45.8943
rfoot -15.084 -15.8802
rtoes -1.0266
lfemur -38.5214 -10.1355 -8.53109
ltibia 35.5984
lfoot -15.9568 3.90411
ltoes -15.7893
344
root 5.53456 15.9197 9.75913 121.827 -80.4175 -100.633
lowerback -10.7218 -2.08135 -11.7389
upperback -6.74357 -2.13791 -2.13042
thorax -0.851092 -0.934125 4.12427
lowerneck -22.0848 5.48554 5.44443
upperneck 19.2892 3.50596 8.48328
head 9.77506 2.98063 2.61047
rclavicle 9.83984e-015 -3.49861e-014
rhumerus -48.6055 -1.99492 -80.8014
rradius 27.5079
rwrist -3.50135
rhand -9.09417 -17.0075
rfingers 7.12502
rthumb 16.8558 -46.296
lclavicle 9.83984e-015 -3.49861e-014
lhumerus -25.3465 -23.221 85.3661
lradius 27.0156
lwrist 39.0387
lhand -26.0231 -3.52198
lfingers 7.12502
lthumb 0.523418 26.4571
rfemur -42.8599 13.4926 26.0518
rtibia 46.31
rfoot -14.7978 -15.9266
rtoes -1.05114
lfemur -38.2978 -10.0068 -8.41701
ltibia 35.3801
lfoot -15.885 3.96987
ltoes -15.9497
345
root 5.53768 15.93 9.73611 122.631 -80.3374 -101.481
lowerback -10.6216 -1.95804 -11.8392
upperback -6.68933 -1.97592 -2.27897
thorax -0.877072 -0.853489 4.04281
lowerneck -22.1578 5.3717 5.26707
upperneck 19.1815 3.33399 8.78079
head 9.74615 2.91925 2.71685
rclavicle 4.79071e-014 -1.01778e-013
rhumerus -48.5456 -1.44603 -81.3497
rradius 28.26
rwrist -4.11828
rhand -9.4994 -17.0652
rfingers 7.12502
rthumb 16.4657 -46.3864
lclavicle 4.79071e-014 -1.01778e-013
lhumerus -25.2227 -23.1999 85.2451
lradius 26.5445
lwrist 38.8763
lhand -25.8036 -3.28329
lfingers 7.12502
lthumb 0.735408 26.6952
rfemur -43.1605 13.5758 25.6041
rtibia 46.7198
rfoot -14.4982 -15.9296
rtoes -1.12635
lfemur -38.0753 -9.87285 -8.31439
ltibia 35.1535
lfoot -15.8112 4.02393
ltoes -16.1117
